<svg width="72" height="72" viewBox="0 0 72 72" fill="none" xmlns="http://www.w3.org/2000/svg">
<path d="M62.6039 30.2126C60.0699 18.5624 46.108 11.7115 31.414 14.9066C16.7201 18.1017 6.86558 30.1396 9.39628 41.7865C11.927 53.4334 25.8922 60.2909 40.5829 57.0925C55.2735 53.8941 65.1346 41.8727 62.6039 30.2126ZM36.0018 46.7382C33.8791 46.7382 31.8041 46.1084 30.0392 44.9284C28.2743 43.7485 26.8987 42.0713 26.0864 40.1091C25.2741 38.1468 25.0616 35.9876 25.4757 33.9045C25.8898 31.8214 26.9119 29.9079 28.4129 28.4061C29.9138 26.9043 31.8261 25.8815 33.908 25.4672C35.9898 25.0528 38.1478 25.2655 40.1088 26.0782C42.0699 26.891 43.746 28.2674 44.9253 30.0334C46.1046 31.7994 46.734 33.8756 46.734 35.9995C46.734 37.4098 46.4564 38.8062 45.9171 40.1091C45.3778 41.4119 44.5872 42.5958 43.5906 43.5929C42.594 44.5901 41.4109 45.3811 40.1088 45.9208C38.8067 46.4605 37.4111 46.7382 36.0018 46.7382Z" fill="#008C99"/>
<path d="M38.3801 20.9653C35.3325 20.966 32.3536 21.8708 29.82 23.5654C27.2863 25.2601 25.3118 27.6684 24.146 30.4858C22.9802 33.3033 22.6755 36.4034 23.2704 39.3941C23.8654 42.3848 25.3333 45.1318 27.4884 47.2878C29.6436 49.4438 32.3893 50.912 35.3784 51.5067C38.3674 52.1013 41.4656 51.7958 44.2811 50.6287C47.0966 49.4616 49.503 47.4853 51.1961 44.9498C52.8892 42.4143 53.7928 39.4334 53.7928 36.384C53.7928 34.3589 53.3942 32.3537 52.6196 30.4828C51.8449 28.6119 50.7096 26.912 49.2783 25.4802C47.8471 24.0484 46.148 22.9127 44.278 22.138C42.4081 21.3634 40.404 20.9649 38.3801 20.9653ZM36.0051 45.3793C34.151 45.3793 32.3386 44.8292 30.797 43.7986C29.2555 42.7679 28.054 41.303 27.3444 39.589C26.6349 37.8751 26.4493 35.9891 26.811 34.1696C27.1727 32.3501 28.0655 30.6788 29.3765 29.367C30.6875 28.0552 32.3578 27.1619 34.1763 26.8C35.9947 26.438 37.8795 26.6238 39.5924 27.3337C41.3053 28.0437 42.7694 29.2459 43.7994 30.7884C44.8295 32.3309 45.3793 34.1444 45.3793 35.9995C45.3793 38.4866 44.3921 40.8719 42.6348 42.6309C40.8775 44.3898 38.4907 45.3785 36.0051 45.3793Z" fill="#70CCD3"/>
</svg>
