<svg width="20" height="19" viewBox="0 0 20 19" fill="none" xmlns="http://www.w3.org/2000/svg">
<path d="M8.10777 1.8541C8.70647 0.0114808 11.3133 0.0114803 11.912 1.8541L12.7063 4.29862C12.974 5.12267 13.7419 5.68059 14.6084 5.68059H17.1787C19.1161 5.68059 19.9217 8.15982 18.3543 9.29862L16.2748 10.8094C15.5739 11.3187 15.2805 12.2214 15.5483 13.0455L16.3426 15.49C16.9413 17.3326 14.8323 18.8649 13.2649 17.7261L11.1855 16.2153C10.4845 15.706 9.53528 15.706 8.83431 16.2153L6.75488 17.7261C5.18745 18.8649 3.07849 17.3326 3.67719 15.49L4.47147 13.0455C4.73921 12.2214 4.4459 11.3187 3.74492 10.8094L1.66549 9.29862C0.098063 8.15982 0.903614 5.68059 2.84106 5.68059H5.41138C6.27783 5.68059 7.04575 5.12267 7.31349 4.29862L8.10777 1.8541Z" fill="#FFC226"/>
</svg>
