<svg width="29" height="29" viewBox="0 0 29 29" fill="none" xmlns="http://www.w3.org/2000/svg">
<path d="M13.5677 6.00861C14.0167 4.62664 15.9718 4.62664 16.4208 6.00861L17.2151 8.45313C17.5498 9.48319 18.5097 10.1806 19.5928 10.1806H22.1631C23.6162 10.1806 24.2203 12.04 23.0448 12.8941L20.9653 14.4049C20.0891 15.0415 19.7225 16.1699 20.0571 17.2L20.8514 19.6445C21.3004 21.0265 19.7187 22.1757 18.5432 21.3216L16.4637 19.8108C15.5875 19.1742 14.401 19.1742 13.5248 19.8108L11.4454 21.3216C10.2698 22.1757 8.68807 21.0265 9.1371 19.6445L9.93137 17.2C10.2661 16.1699 9.89941 15.0415 9.02319 14.4049L6.94376 12.8941C5.76819 12.04 6.37235 10.1806 7.82544 10.1806H10.3958C11.4788 10.1806 12.4387 9.48319 12.7734 8.45313L13.5677 6.00861Z" stroke="#FFC226"/>
<mask id="mask0_1_22193" style="mask-type:alpha" maskUnits="userSpaceOnUse" x="5" y="4" width="20" height="19">
<path d="M13.0921 5.8541C13.6908 4.01148 16.2977 4.01148 16.8964 5.8541L17.6906 8.29862C17.9584 9.12267 18.7263 9.68059 19.5928 9.68059H22.1631C24.1005 9.68059 24.9061 12.1598 23.3386 13.2986L21.2592 14.8094C20.5582 15.3187 20.2649 16.2214 20.5327 17.0455L21.3269 19.49C21.9256 21.3326 19.8167 22.8649 18.2493 21.7261L16.1698 20.2153C15.4689 19.706 14.5197 19.706 13.8187 20.2153L11.7393 21.7261C10.1718 22.8649 8.06286 21.3326 8.66157 19.49L9.45584 17.0455C9.72359 16.2214 9.43027 15.3187 8.7293 14.8094L6.64987 13.2986C5.08244 12.1598 5.88799 9.68059 7.82544 9.68059H10.3958C11.2622 9.68059 12.0301 9.12267 12.2979 8.29862L13.0921 5.8541Z" fill="#FFC226"/>
</mask>
<g mask="url(#mask0_1_22193)">
<rect x="3" y="1" width="12" height="25" fill="#FFC226"/>
</g>
</svg>
