<svg width="17" height="17" viewBox="0 0 17 17" fill="none" xmlns="http://www.w3.org/2000/svg">
<path d="M16.3599 8.44043C16.3599 12.7217 12.8911 16.1904 8.60989 16.1904C4.32864 16.1904 0.859891 12.7217 0.859891 8.44043C0.859891 4.15918 4.32864 0.69043 8.60989 0.69043C12.8911 0.69043 16.3599 4.15918 16.3599 8.44043ZM2.35989 8.44043C2.35989 11.9092 5.14114 14.6904 8.60989 14.6904C12.0474 14.6904 14.8599 11.9092 14.8599 8.44043C14.8599 5.00293 12.0474 2.19043 8.60989 2.19043C5.14114 2.19043 2.35989 5.00293 2.35989 8.44043ZM4.60989 9.06543V7.81543C4.60989 7.62793 4.76614 7.44043 4.98489 7.44043H8.60989V5.34668C8.60989 5.03418 8.98489 4.84668 9.23489 5.09668L12.3286 8.19043C12.4849 8.34668 12.4849 8.56543 12.3286 8.72168L9.23489 11.8154C8.98489 12.0654 8.60989 11.8779 8.60989 11.5342V9.44043H4.98489C4.76614 9.44043 4.60989 9.28418 4.60989 9.06543Z" fill="#001038"/>
</svg>
