<svg width="61" height="59" viewBox="0 0 61 59" fill="none" xmlns="http://www.w3.org/2000/svg">
<g clip-path="url(#clip0_1_22073)">
<path d="M30.3716 22.349C29.6732 20.2856 28.9369 18.2329 28.2981 16.1509C28.0274 15.273 27.5889 14.9946 26.6442 14.9999C19.6034 15.0397 12.56 15.0264 5.51919 15.0131C2.40892 15.0078 1.22328 13.817 1.22599 10.7644C1.22599 8.70364 1.2314 6.64027 1.23952 4.57955C1.24494 1.98309 2.51991 0.699446 5.18624 0.688837C10.7192 0.66762 16.2522 0.670272 21.7852 0.670272C32.9865 0.670272 44.1905 0.678229 55.3918 0.680881C58.7078 0.680881 59.8366 1.78153 59.8393 5.02246C59.842 7.03809 59.8529 9.05638 59.8501 11.072C59.8501 13.7401 58.5589 15.0052 55.8033 15.0078C48.8086 15.0158 41.8111 15.0476 34.8164 14.9813C33.582 14.9707 33.0352 15.3526 32.6996 16.4718C32.1068 18.4424 31.3759 20.3758 30.7046 22.3251C30.5936 22.3331 30.4826 22.341 30.3716 22.349Z" fill="#FFA229"/>
<path d="M47.8503 58.6702H13.1663C13.3558 55.1747 12.5383 51.6606 14.1165 48.3427C15.9734 44.4388 19.1216 42.1659 23.5366 42.012C28.1952 41.8503 32.8647 41.8635 37.5233 41.9988C43.0428 42.1606 47.4822 46.4464 47.8259 51.833C47.9667 54.0555 47.8503 56.2965 47.8503 58.6702Z" fill="#FFA229"/>
<path d="M0.976959 48.4567C1.11231 45.9079 0.947183 43.4574 1.43172 41.1367C2.26276 37.1426 5.87381 34.4215 10.0425 34.326C13.5588 34.2464 17.0806 34.2889 20.5996 34.3207C20.9758 34.3233 21.5714 34.5408 21.6905 34.8166C22.6758 37.0789 24.2783 38.7684 26.4276 40.2085C25.4531 40.2085 24.4732 40.1395 23.5068 40.2191C18.5044 40.6408 14.8284 43.041 12.6168 47.4727C12.2351 48.2392 11.8047 48.4858 10.9602 48.4752C7.72806 48.4275 4.49327 48.4567 0.979666 48.4567H0.976959Z" fill="#FFA229"/>
<path d="M34.6674 40.1849C36.768 38.7899 38.3407 37.127 39.3315 34.9124C39.4641 34.618 40.0082 34.329 40.3628 34.3263C43.9739 34.2892 47.5876 34.2043 51.1933 34.3449C56.1118 34.5358 59.8176 38.339 59.9529 43.15C60.0016 44.8474 59.961 46.5474 59.961 48.4464C58.4424 48.4464 56.9996 48.4464 55.5568 48.4464C53.6836 48.449 51.8077 48.5074 49.9372 48.4251C49.4744 48.4039 48.8139 48.0485 48.6163 47.664C45.9987 42.5851 41.7867 40.1451 36.0209 40.1876C35.5688 40.1902 35.1168 40.1876 34.6674 40.1876V40.1849Z" fill="#FFA229"/>
<path d="M30.5528 39.0684C26.3543 39.0792 22.9138 35.7533 22.8921 31.6743C22.8732 27.4812 26.265 24.1051 30.5149 24.0892C34.7539 24.0759 38.189 27.4601 38.1728 31.6372C38.1566 35.7428 34.7539 39.0606 30.5555 39.0712L30.5528 39.0684Z" fill="#FFA229"/>
<path d="M38.9878 25.5527C39.0149 22.0147 41.8626 19.2856 45.4709 19.3386C49.0197 19.3916 51.7862 22.134 51.7916 25.6056C51.797 29.1304 48.9574 31.8939 45.3491 31.8753C41.7137 31.8568 38.9607 29.1198 38.9878 25.5553V25.5527Z" fill="#FFA229"/>
<path d="M22.0721 25.7304C22.0234 29.271 19.1811 31.9364 15.5322 31.8701C11.9861 31.8038 9.24664 29.035 9.28454 25.5553C9.32244 22.0121 12.1702 19.2857 15.7785 19.3387C19.4031 19.3891 22.1236 22.1526 22.0721 25.733V25.7304Z" fill="#FFA229"/>
<path d="M8.91641 3.13672L10.2888 5.86313L13.3585 6.30073L11.1361 8.42245L11.6613 11.4167L8.91641 10.0031L6.16887 11.4167L6.69401 8.42245L4.47162 6.30073L7.54128 5.86313L8.91641 3.13672Z" fill="white"/>
<path d="M19.9553 3.13672L21.3277 5.86313L24.3974 6.30073L22.1777 8.42245L22.7002 11.4167L19.9553 10.0031L17.2105 11.4167L17.7329 8.42245L15.5132 6.30073L18.5829 5.86313L19.9553 3.13672Z" fill="white"/>
<path d="M30.9942 3.13672L32.3693 5.86313L35.439 6.30073L33.2166 8.42245L33.7418 11.4167L30.9942 10.0031L28.2494 11.4167L28.7745 8.42245L26.5521 6.30073L29.6218 5.86313L30.9942 3.13672Z" fill="white"/>
<path d="M42.0358 3.13672L43.4082 5.86313L46.4779 6.30073L44.2582 8.42245L44.7806 11.4167L42.0358 10.0031L39.291 11.4167L39.8134 8.42245L37.5937 6.30073L40.6634 5.86313L42.0358 3.13672Z" fill="white"/>
<path d="M53.0747 3.13672L54.4498 5.86313L57.5195 6.30073L55.2971 8.42245L55.8222 11.4167L53.0747 10.0031L50.3299 11.4167L50.855 8.42245L48.6326 6.30073L51.7023 5.86313L53.0747 3.13672Z" fill="white"/>
</g>
<defs>
<clipPath id="clip0_1_22073">
<rect width="60" height="58" fill="white" transform="translate(0.809967 0.670166)"/>
</clipPath>
</defs>
</svg>
